HIERARCHY
ROOT hip
{
	OFFSET 0.000000 0.000000 0.000000 
	CHANNELS 6 Xposition Yposition Zposition Xrotation Zrotation Yrotation
	JOINT abdomen
	{
		OFFSET 0.000000 3.402643 0.000000 
		CHANNELS 3 Xrotation Zrotation Yrotation
		JOINT chest
		{
			OFFSET 0.000000 8.438565 -0.680529 
			CHANNELS 3 Xrotation Zrotation Yrotation
			JOINT neck
			{
				OFFSET 0.000000 10.207942 -0.272212 
				CHANNELS 3 Xrotation Zrotation Yrotation
				JOINT head
				{
					OFFSET 0.000000 3.130431 0.000000 
					CHANNELS 3 Xrotation Zrotation Yrotation
					End Site
					{
						OFFSET 0.000000 3.130435 0.000000 
					}
				}
			}
			JOINT lCollar
			{
				OFFSET 3.470700 6.669187 -0.816635 
				CHANNELS 3 Yrotation Zrotation Xrotation
				JOINT lShldr
				{
					OFFSET 3.198488 0.000000 0.000000 
					CHANNELS 3 Zrotation Yrotation Xrotation
					JOINT lForeArm
					{
						OFFSET 10.139888 0.000000 0.000000 
						CHANNELS 3 Yrotation Zrotation Xrotation
						JOINT lHand
						{
							OFFSET 8.370511 0.000000 0.000000 
							CHANNELS 3 Zrotation Yrotation Xrotation
							End Site
							{
								OFFSET 4.083176 0.000000 0.000000 
							}
						}
					}
				}
			}
			JOINT rCollar
			{
				OFFSET -3.470700 6.669187 -0.816635 
				CHANNELS 3 Yrotation Zrotation Xrotation
				JOINT rShldr
				{
					OFFSET -3.198488 0.000000 0.000000 
					CHANNELS 3 Zrotation Yrotation Xrotation
					JOINT rForeArm
					{
						OFFSET -10.139888 0.000000 0.000000 
						CHANNELS 3 Yrotation Zrotation Xrotation
						JOINT rHand
						{
							OFFSET -8.370511 0.000000 0.000000 
							CHANNELS 3 Zrotation Yrotation Xrotation
							End Site
							{
								OFFSET -4.083176 0.000000 0.000000 
							}
						}
					}
				}
			}
		}
	}
	JOINT lThigh
	{
		OFFSET 5.308129 -1.633274 1.361059 
		CHANNELS 3 Xrotation Zrotation Yrotation
		JOINT lShin
		{
			OFFSET -2.041588 -20.007561 0.000000 
			CHANNELS 3 Xrotation Zrotation Yrotation
			JOINT lFoot
			{
				OFFSET 0.000000 -19.190928 -1.224953 
				CHANNELS 3 Xrotation Yrotation Zrotation
				End Site
				{
					OFFSET 0.000000 -2.449906 4.627600 
				}
			}
		}
	}
	JOINT rThigh
	{
		OFFSET -5.308129 -1.633274 1.361059 
		CHANNELS 3 Xrotation Zrotation Yrotation
		JOINT rShin
		{
			OFFSET 2.041588 -20.007561 0.000000 
			CHANNELS 3 Xrotation Zrotation Yrotation
			JOINT rFoot
			{
				OFFSET 0.000000 -19.190928 -1.224953 
				CHANNELS 3 Xrotation Yrotation Zrotation
				End Site
				{
					OFFSET 0.000000 -2.449906 4.627600 
				}
			}
		}
	}
}
MOTION
Frames: 15
Frame Time: 0.016667
-0.164183 43.834106 0.439410 3.245100 -2.427750 -3.292190 -21.093399 -0.453998 -0.432010 15.212500 -1.691840 -0.203159 1.603330 -8.944400 4.643780 5.802070 0.367113 2.492950 2.000000 -2.000000 0.000000 -84.538300 2.859750 -168.307007 35.224998 -0.326532 0.078915 0.044939 -0.009894 -140.457001 -2.000000 2.000000 0.000000 85.015999 2.371150 -166.811005 -33.486698 0.328872 0.075435 -0.066463 -0.051280 -114.558998 -15.026437 -3.900505 1.565356 29.545134 2.391269 2.350506 -11.048840 -8.241238 -2.245953 -12.823133 8.216913 0.588860 25.994884 -2.332885 -2.179713 -14.447026 -2.620326 -0.515304 
-0.179379 43.813786 0.382169 3.420820 -2.339580 -3.675250 -20.986300 -0.478028 -0.329132 15.222400 -1.633520 -0.160062 1.215750 -8.947370 4.917900 5.694560 0.328310 2.618060 2.000000 -2.000000 0.000000 -84.401703 2.996080 -168.473007 35.683998 -0.325896 0.079807 0.044950 -0.010085 -140.524994 -2.000000 2.000000 0.000000 85.210999 2.584570 -166.195007 -34.140999 0.328003 0.076733 -0.066798 -0.052089 -114.246002 -15.378761 -3.833404 1.888904 29.774246 2.363871 2.388005 -10.886099 -8.504834 -2.264838 -13.469315 8.242448 1.124407 26.801407 -2.323171 -2.220970 -14.569383 -2.601536 -0.508252 
-0.195060 43.780613 0.312916 3.567360 -2.309970 -4.001670 -20.937901 -0.529355 -0.215696 15.085600 -1.672040 -0.103616 0.935847 -8.967920 5.200300 5.616330 0.279675 2.743200 2.000000 -2.000000 0.000000 -84.284698 3.356650 -168.796005 36.348000 -0.324965 0.081088 0.044942 -0.009948 -140.475998 -2.000000 2.000000 0.000000 85.445000 2.670970 -165.550003 -34.834400 0.327066 0.078096 -0.067126 -0.052870 -113.943001 -15.720659 -3.741727 2.102386 30.049717 2.355852 2.400522 -10.730305 -8.703417 -2.262693 -14.025840 8.311930 1.640154 27.667833 -2.310765 -2.289284 -15.049747 -2.644742 -0.500448 
-0.217185 43.737137 0.225625 3.704010 -2.241410 -4.266430 -20.782101 -0.590205 -0.099825 15.085400 -1.730370 -0.058971 0.594153 -8.965140 5.538030 5.528350 0.240819 2.897980 2.000000 -2.000000 0.000000 -84.177498 3.707480 -169.110001 37.197701 -0.323751 0.082712 0.044964 -0.010303 -140.602997 -2.000000 2.000000 0.000000 85.679001 2.923270 -164.856003 -35.527699 0.326113 0.079449 -0.067341 -0.053373 -113.748001 -16.152895 -3.725368 2.175733 30.395458 2.338972 2.438185 -10.676804 -8.776057 -2.262032 -14.733492 8.381000 2.239820 28.789412 -2.291821 -2.360594 -15.790059 -2.604794 -0.475866 
-0.253458 43.685448 0.125109 3.762100 -2.017130 -4.439510 -20.558201 -0.732648 -0.006858 15.124400 -1.759640 -0.028083 0.279115 -8.908780 5.931500 5.469690 0.211659 3.082530 2.000000 -2.000000 0.000000 -84.021400 4.078000 -169.354996 38.144901 -0.322370 0.084501 0.045000 -0.010849 -140.798996 -2.000000 2.000000 0.000000 85.961800 3.185260 -164.123001 -36.250401 0.325102 0.080846 -0.067481 -0.053700 -113.621002 -16.398861 -3.825890 2.247997 30.584661 2.302883 2.444568 -10.558448 -8.917388 -2.256316 -15.415730 8.308607 2.851463 29.941490 -2.255809 -2.436046 -16.420179 -2.480620 -0.456957 
-0.299249 43.637222 0.007393 3.731960 -1.617660 -4.500270 -20.285999 -0.968516 0.087238 15.134100 -1.788840 -0.015851 -0.132840 -8.776220 6.305380 5.372060 0.221632 3.258190 2.000000 -2.000000 0.000000 -83.855598 4.467830 -169.697006 39.170300 -0.320841 0.086412 0.045046 -0.011504 -141.033005 -2.000000 2.000000 0.000000 86.264000 3.359250 -163.341995 -37.099998 0.323892 0.082472 -0.067546 -0.053851 -113.561996 -16.624565 -4.133665 2.393595 30.841019 2.297690 2.477564 -10.346424 -9.146113 -2.273194 -16.183636 8.043041 3.524396 31.345812 -2.245412 -2.511935 -16.218178 -2.657952 -0.483370 
-0.352157 43.593746 -0.135229 3.672830 -1.305910 -4.390660 -19.994600 -1.203020 0.157041 15.065300 -1.905280 -0.012281 -0.813900 -8.770550 6.570510 5.147360 0.183059 3.354190 2.000000 -2.000000 0.000000 -83.767998 4.837770 -170.186005 40.254299 -0.319189 0.088401 0.045133 -0.012649 -141.442993 -2.000000 2.000000 0.000000 86.488098 3.445230 -162.501007 -38.047298 0.322513 0.084263 -0.067470 -0.053675 -113.630997 -16.859503 -4.346579 2.359048 31.137148 2.276646 2.495295 -9.989292 -9.563235 -2.291240 -16.900488 7.879373 4.287031 32.790409 -2.222099 -2.602674 -16.361704 -2.109374 -0.272147 
-0.424293 43.546299 -0.289966 3.496730 -1.091710 -4.158680 -19.634701 -1.392930 0.206480 14.996500 -2.021700 -0.008434 -1.541070 -8.837460 6.773090 4.922610 0.115184 3.410970 2.000000 -2.000000 0.000000 -83.778099 5.129270 -170.811996 41.211399 -0.317699 0.090131 0.045295 -0.014556 -142.126999 -2.000000 2.000000 0.000000 86.526398 3.540710 -161.544006 -39.014099 0.321076 0.086068 -0.067362 -0.053424 -113.727997 -17.128933 -4.438154 2.212640 31.687208 2.274388 2.532188 -9.454712 -10.434584 -2.369144 -17.450684 7.811850 5.182082 34.214230 -2.205104 -2.685294 -16.073448 -0.981329 0.144653 
-0.514822 43.474796 -0.457379 3.271800 -0.789726 -3.834340 -19.216499 -1.600230 0.236981 14.927900 -2.089490 -0.009092 -2.060700 -8.639170 6.967750 4.786070 0.203353 3.490020 2.000000 -2.000000 0.000000 -83.846802 5.361710 -171.632996 41.963299 -0.316508 0.091473 0.045561 -0.017223 -143.084000 -2.000000 2.000000 0.000000 86.457397 3.616830 -160.654999 -39.961300 0.319639 0.087812 -0.067644 -0.063842 -113.474998 -17.338169 -4.578424 2.208973 32.217937 2.254743 2.545659 -8.709796 -11.563467 -2.438061 -17.946526 7.699852 6.137416 35.589504 -2.182529 -2.776006 -15.833338 0.258556 0.571491 
-0.621305 43.367928 -0.650890 3.115330 -0.458306 -3.335570 -18.866800 -1.803270 0.306360 14.732000 -2.205360 0.009904 -2.543620 -8.342310 7.031910 4.649660 0.350116 3.500950 2.000000 -2.000000 0.000000 96.055199 174.356995 7.370350 42.568802 -0.315536 0.092542 0.045901 -0.020129 -144.128998 -2.000000 2.000000 0.000000 86.281197 3.469250 -160.167007 -40.898899 0.318188 0.089515 -0.068271 -0.065269 -112.917999 -17.695671 -4.683221 2.249083 32.888554 2.223099 2.610706 -8.088397 -12.789599 -2.491358 -18.456915 7.566978 7.026234 36.757454 -2.162511 -2.831990 -15.666517 1.021575 0.854593 
-0.743834 43.225952 -0.854780 2.929690 0.048764 -2.536560 -18.537500 -2.053170 0.389719 14.448100 -2.320750 0.033250 -3.154340 -7.980090 6.924170 4.454700 0.516540 3.413160 2.000000 -2.000000 0.000000 95.947304 173.960007 6.080410 43.018002 -0.314808 0.093329 0.046233 -0.022596 -145.016998 -2.000000 2.000000 0.000000 85.978401 3.156700 -160.149002 -41.670300 0.316974 0.090899 -0.069049 -0.066988 -112.244003 -18.160925 -4.952370 2.355607 33.724377 2.206633 2.676567 -7.648346 -14.401035 -2.669901 -18.928215 7.172624 7.648838 37.728401 -2.153153 -2.876326 -15.610749 1.117605 0.862070 
-0.868991 43.077038 -1.056115 2.783300 0.477951 -1.422000 -18.178900 -2.307370 0.377285 14.183300 -2.503980 0.015655 -3.955660 -7.594860 6.723970 4.171830 0.683151 3.284130 2.000000 -2.000000 0.000000 95.809998 173.574005 4.047220 43.193802 -0.314521 0.093635 0.046206 -0.022406 -144.949005 -2.000000 2.000000 0.000000 85.568604 2.854980 -160.598999 -42.129299 0.316242 0.091714 -0.070377 -0.069808 -111.130997 -18.665960 -5.126541 2.353911 34.561279 2.153139 2.711573 -6.653242 -16.744141 -2.764855 -19.349249 6.704554 7.739037 38.436169 -2.125596 -2.919460 -16.503944 1.235826 0.873615 
-1.011114 42.931583 -1.254685 2.773630 0.673039 -0.172360 -17.779800 -2.448900 0.303355 14.084700 -2.678160 -0.028667 -4.685430 -7.320650 6.466350 3.927960 0.820375 3.124770 2.000000 -2.000000 0.000000 95.663200 173.298004 1.204760 43.115700 -0.314649 0.093499 0.045666 -0.018174 -143.425995 -2.000000 2.000000 0.000000 84.993103 2.603320 -161.595001 -42.236698 0.316070 0.091904 -0.072764 -0.074546 -109.236000 -19.442476 -5.013032 2.219385 35.612076 2.139143 2.781772 -5.167023 -19.523600 -2.641366 -19.675041 6.434188 7.523060 38.820732 -2.101986 -2.961624 -16.941267 1.030765 0.787282 
-1.169497 42.764915 -1.435055 2.920240 0.848506 1.195770 -17.418900 -2.524070 0.239506 14.074100 -2.823660 -0.050774 -5.193680 -7.153090 6.087840 3.791500 0.957369 2.917220 2.000000 -2.000000 0.000000 95.750999 173.022003 -1.803720 42.646900 -0.315410 0.092680 0.045076 -0.011913 -141.179993 -2.000000 2.000000 0.000000 84.311096 2.354400 -163.783005 -41.504299 0.317237 0.090602 -0.075972 -0.080365 -106.862999 -20.297081 -4.867377 2.002786 36.486313 2.110046 2.821955 -2.721256 -22.519564 -2.016489 -20.046883 6.247877 7.108041 39.133785 -2.103832 -2.964813 -17.930878 0.401571 0.540446 
-1.333140 42.601845 -1.601169 3.242540 0.848249 2.714210 -17.272100 -2.521010 0.191157 13.896900 -3.036050 -0.046564 -5.607930 -7.042670 5.597520 3.645220 1.074840 2.660120 2.000000 -2.000000 0.000000 96.239502 172.412994 -4.676260 41.709400 -0.316912 0.091022 0.044722 -0.005332 -138.826004 -2.000000 2.000000 0.000000 83.492401 1.696620 -166.509995 -40.449600 0.318887 0.088702 -0.079698 -0.086484 -104.305000 -21.396402 -4.586754 1.582158 37.400372 2.086557 2.891190 1.090526 -25.527052 -0.555431 -20.418917 6.196070 6.300859 39.164398 -2.092153 -2.979578 -18.823847 -1.085801 -0.051917 
